<svg width="42" height="27" viewBox="0 0 42 27" fill="none" xmlns="http://www.w3.org/2000/svg">
<path d="M40.6556 19.0651C40.6556 20.1789 39.096 21.5481 37.8276 21.5481H36.6726C36.6739 14.7315 36.6739 7.08956 36.6726 5.73312C36.6722 5.69295 36.681 5.6531 36.6986 5.61584C36.7162 5.57858 36.7423 5.54465 36.7753 5.51599C36.8083 5.48733 36.8476 5.46451 36.891 5.44882C36.9344 5.43313 36.981 5.4249 37.0282 5.42458H40.2985C40.4949 5.42458 40.6558 5.56502 40.6558 5.73554V19.0651H40.6556ZM35.3265 23.94C35.3265 24.6451 34.9216 25.8262 32.2096 25.8262C26.9539 25.8262 23.7276 22.3175 23.7276 19.8011C23.7276 19.8011 23.7218 11.6646 23.7218 5.73569C23.7212 5.69546 23.73 5.65554 23.7477 5.61823C23.7653 5.58091 23.7914 5.54694 23.8246 5.51826C23.8577 5.48958 23.8971 5.46677 23.9406 5.45113C23.9841 5.4355 24.0308 5.42735 24.078 5.42715H27.3522C27.5488 5.42715 27.7102 5.56668 27.7102 5.73826V18.8117C27.7102 20.9718 29.7165 22.7239 32.1898 22.7239H35.3283L35.3265 23.94ZM40.5467 4.25211H36.7794C35.9785 4.25211 35.3261 4.82217 35.3261 5.52148V21.5494H32.1874C30.4558 21.5494 29.0523 20.3234 29.0523 18.8114V5.52148C29.0523 4.8205 28.4009 4.2515 27.5983 4.2515H23.8295C23.0269 4.2515 22.3756 4.8205 22.3744 5.52148C22.3724 11.3164 22.3802 19.8014 22.3802 19.8014C22.3808 24.2614 28.1048 27 32.2086 27C34.9612 27 36.6709 25.825 36.6709 23.932V22.7236H37.827C39.855 22.7236 42 20.8435 42 19.0651V5.52148C42.0019 4.8205 41.3507 4.2515 40.5469 4.2515V4.25211H40.5467ZM18.2818 21.2645C18.2822 21.3046 18.2734 21.3445 18.2557 21.3817C18.2381 21.419 18.2119 21.4529 18.1789 21.4815C18.1458 21.5101 18.1064 21.5329 18.0629 21.5485C18.0195 21.5641 17.9729 21.5722 17.9257 21.5724H14.6515C14.4523 21.5724 14.2926 21.4317 14.2935 21.262V8.18842C14.2935 6.0285 12.2867 4.27644 9.81397 4.27644H6.67528V3.05998C6.67528 2.35643 7.08013 1.17383 9.79214 1.17383C15.048 1.17383 18.2752 4.68234 18.2752 7.19886C18.2752 7.19886 18.2811 15.3749 18.2811 21.2643H18.2818V21.2645ZM1.70169 21.5751C1.50246 21.5701 1.34315 21.4333 1.34545 21.2636V7.93642C1.34545 6.82245 2.90522 5.45149 4.17314 5.45149H5.32912C5.32735 15.213 5.32735 20.2079 5.32912 21.2629C5.33002 21.3445 5.29299 21.423 5.22613 21.4813C5.15926 21.5396 5.06802 21.5729 4.97236 21.5741H1.70222L1.70169 21.5751ZM19.6191 7.19901C19.6198 2.73859 13.8956 0 9.79232 0C7.03897 0 5.32912 1.17489 5.32912 3.06799V4.27644H4.17367C2.14503 4.27644 0 6.15654 0 7.93506V21.4785C0 22.1795 0.65126 22.7485 1.45349 22.7485H5.22002C5.24344 22.7485 5.26348 22.7431 5.2869 22.7431C6.05667 22.7115 6.67333 22.1591 6.67333 21.4785V5.45058H9.81255C11.5435 5.45058 12.9477 6.67657 12.9477 8.18857V21.4787C12.9477 22.1796 13.5991 22.7486 14.4012 22.7486H18.1707C18.9733 22.7486 19.6242 22.1812 19.6242 21.4787C19.627 15.5756 19.6196 7.19871 19.6196 7.19871L19.6191 7.19901Z" fill="white"/>
</svg>
